<?xml version="1.0" standalone="no"?>
<!DOCTYPE svg PUBLIC "-//W3C//DTD SVG 20010904//EN"
 "http://www.w3.org/TR/2001/REC-SVG-20010904/DTD/svg10.dtd">
<svg version="1.0" xmlns="http://www.w3.org/2000/svg"
 width="400.000000pt" height="400.000000pt" viewBox="0 0 400.000000 400.000000"
 preserveAspectRatio="xMidYMid meet">
<metadata>
Created by potrace 1.11, written by Peter Selinger 2001-2013
</metadata>
<g transform="translate(0.000000,400.000000) scale(0.100000,-0.100000)"
fill="#000000" stroke="none">
<path d="M1870 3866 c-83 -24 -122 -65 -86 -91 8 -7 13 -14 10 -17 -2 -3 16
-12 41 -19 45 -13 56 -33 19 -35 -10 -1 -46 -5 -79 -9 -33 -4 -73 -8 -90 -10
-89 -9 -335 -86 -451 -141 -19 -9 -37 -14 -40 -11 -3 3 6 23 20 44 53 77 22
113 -79 91 -89 -19 -218 -105 -249 -167 -16 -30 -5 -70 19 -72 8 -1 21 -2 28
-3 6 -1 25 2 42 6 56 15 44 -8 -33 -62 -98 -70 -300 -272 -372 -372 -30 -43
-58 -78 -62 -78 -11 0 -10 28 1 68 6 20 6 32 0 32 -5 0 -8 3 -8 8 4 21 -3 32
-20 32 -25 0 -83 -21 -76 -28 3 -3 -7 -14 -22 -24 -16 -10 -24 -18 -19 -18 6
0 -1 -10 -13 -22 -51 -46 -99 -188 -84 -245 7 -31 48 -30 96 3 21 14 41 23 44
20 3 -3 -6 -30 -20 -59 -52 -110 -124 -342 -132 -427 -1 -14 -5 -43 -9 -65 -3
-22 -8 -62 -11 -89 -3 -28 -7 -52 -10 -54 -4 -4 -35 65 -35 79 0 5 -11 16 -24
24 -49 32 -86 -16 -104 -134 -16 -107 22 -254 67 -263 15 -3 66 37 66 52 0 5
3 12 7 16 5 4 8 15 8 24 0 9 6 17 13 17 8 0 13 -13 14 -36 1 -123 51 -345 114
-509 23 -59 45 -111 50 -116 14 -16 10 -36 -6 -36 -8 0 -15 4 -15 10 0 5 -11
17 -24 25 -96 63 -125 -26 -56 -170 35 -73 114 -161 154 -171 27 -6 60 11 51
26 -3 5 -1 11 4 14 5 4 5 21 0 43 -12 51 -11 53 6 53 8 0 15 -5 15 -11 0 -6
10 -24 23 -39 12 -15 33 -43 47 -61 83 -110 248 -269 363 -347 26 -18 47 -37
47 -42 0 -6 -24 -8 -54 -6 -42 3 -57 1 -68 -12 -17 -21 -17 -29 4 -67 16 -28
94 -101 107 -99 3 0 12 -5 18 -12 43 -42 204 -71 217 -38 12 32 5 56 -25 86
-41 42 -25 56 31 28 95 -48 316 -118 425 -135 22 -3 47 -7 55 -10 8 -2 44 -6
79 -9 35 -3 67 -8 70 -12 8 -7 -29 -34 -47 -34 -17 0 -52 -37 -52 -55 0 -25
56 -59 120 -72 44 -9 146 -6 198 7 62 14 103 49 95 79 -3 11 -9 19 -13 16 -4
-3 -10 1 -13 9 -3 8 -19 17 -36 21 -28 6 -48 21 -40 30 2 2 29 6 59 10 158 18
151 17 246 40 111 27 215 63 333 116 24 11 45 18 47 16 7 -7 -7 -37 -17 -37
-5 0 -9 -6 -9 -14 0 -8 -4 -16 -9 -18 -6 -1 -12 -15 -15 -31 -3 -19 0 -30 14
-37 26 -14 90 -12 121 4 14 7 37 16 52 20 15 3 27 11 27 16 0 6 7 10 15 10 8
0 28 13 44 29 16 16 32 27 34 24 3 -2 8 5 12 16 3 12 10 19 15 16 4 -2 13 9
20 26 26 61 -16 92 -97 70 -21 -6 -33 -6 -33 1 0 10 25 38 35 38 10 0 105 74
105 82 0 4 6 8 13 8 20 1 219 209 287 302 60 82 92 103 72 47 -4 -13 -8 -31
-7 -39 1 -8 3 -25 3 -37 1 -12 10 -24 21 -28 21 -6 71 13 71 28 0 6 3 8 6 4
12 -12 87 84 115 148 45 102 41 191 -10 181 -26 -5 -71 -29 -71 -38 0 -4 -7
-8 -15 -8 -21 0 -19 11 14 82 74 163 144 451 142 591 0 30 20 14 34 -26 10
-29 47 -77 60 -77 9 0 54 49 60 65 18 50 26 182 13 240 -10 45 -32 93 -48 103
-20 12 -63 5 -54 -9 3 -5 1 -9 -4 -9 -6 0 -17 -18 -26 -40 -9 -22 -20 -40 -25
-40 -4 0 -11 35 -15 78 -7 74 -41 266 -51 281 -2 4 -6 18 -9 32 -7 37 -51 156
-85 232 -17 38 -31 70 -31 72 0 9 39 -9 44 -20 6 -17 57 -41 78 -37 20 4 36
47 31 86 -5 32 -54 146 -75 171 -107 132 -185 140 -171 17 3 -23 1 -42 -4 -42
-5 0 -36 36 -68 81 -33 45 -70 89 -82 99 -13 10 -23 22 -23 27 0 16 -198 193
-282 253 -27 18 -48 37 -48 42 0 5 5 6 10 3 6 -4 30 -8 55 -10 53 -3 87 21 77
57 -6 25 -116 138 -133 138 -6 0 -23 8 -37 19 -32 21 -115 43 -156 39 -42 -4
-55 -39 -32 -81 10 -18 26 -38 34 -44 36 -29 -3 -23 -90 15 -180 77 -445 141
-565 136 -36 -2 -27 13 21 35 47 20 70 49 60 75 -3 8 -27 25 -52 38 -57 27
-192 34 -262 14z m-30 -351 c0 -8 11 -17 24 -21 32 -8 35 -19 27 -108 0 -8 -9
-15 -18 -14 -36 1 -120 -11 -193 -27 -41 -9 -86 -18 -99 -21 -14 -3 -29 -8
-35 -12 -6 -3 -16 -7 -22 -8 -6 -1 -50 -18 -98 -37 l-86 -35 -26 44 c-25 43
-26 46 -9 64 10 11 15 26 12 33 -6 16 13 26 103 59 57 20 72 25 80 26 3 0 17
5 33 11 15 6 38 13 50 15 12 3 54 12 92 20 129 27 165 30 165 11z m430 -10
c88 -16 176 -41 270 -76 84 -32 99 -40 93 -54 -2 -8 5 -23 16 -34 19 -19 19
-51 0 -51 -5 0 -9 -6 -9 -12 0 -7 -7 -21 -15 -32 -14 -18 -15 -18 -57 1 -39
19 -178 71 -203 77 -5 2 -28 6 -50 11 -22 4 -44 10 -49 13 -6 3 -19 6 -30 8
-12 1 -46 5 -76 9 -30 4 -64 8 -75 8 -17 2 -20 10 -23 54 -3 45 0 53 20 64 13
6 27 18 31 26 9 15 13 15 157 -12z m-1152 -273 c18 5 58 -16 56 -30 -1 -4 4
-18 10 -31 9 -21 7 -27 -19 -45 -16 -12 -39 -31 -52 -43 -13 -12 -23 -19 -23
-16 0 4 -9 -3 -20 -15 -12 -12 -25 -22 -31 -22 -10 0 -109 94 -109 104 0 3 32
30 71 61 56 43 74 53 85 44 8 -6 22 -9 32 -7z m1839 -39 c76 -61 192 -177 253
-253 42 -52 48 -66 44 -93 -11 -65 -15 -78 -22 -73 -5 3 -22 -3 -39 -14 -30
-18 -32 -18 -47 -1 -9 10 -16 21 -16 24 0 8 -24 39 -57 72 -12 13 -21 24 -19
26 2 2 -32 39 -76 81 -43 43 -78 75 -78 72 0 -3 -13 8 -30 26 -16 18 -30 29
-30 26 0 -6 -12 2 -45 32 -7 6 -18 12 -23 12 -13 0 -10 16 13 62 15 31 24 38
54 41 20 2 41 4 48 5 6 1 37 -19 70 -45z m-2107 -372 c-34 -44 -63 -81 -65
-81 -2 0 -10 6 -17 13 -7 7 -26 18 -41 25 -22 10 -27 17 -24 39 2 16 0 33 -4
39 -9 11 30 74 79 127 l26 28 54 -54 54 -55 -62 -81z m-210 -181 c3 -1 9 -2
13 -1 4 1 10 -6 13 -14 4 -8 12 -15 19 -15 22 0 22 -20 0 -64 -31 -66 -66
-162 -81 -227 -19 -84 -29 -137 -39 -214 -3 -27 -8 -52 -11 -55 -9 -9 -104 -8
-98 1 3 5 -7 21 -22 36 l-27 27 12 80 c17 109 53 245 92 344 28 71 35 82 56
82 13 0 26 6 29 14 5 12 22 14 44 6z m2751 -20 c34 0 122 -261 144 -425 3 -27
9 -60 12 -72 4 -16 1 -23 -10 -23 -9 0 -22 -12 -29 -27 -12 -25 -18 -28 -66
-28 l-52 0 -2 35 c0 19 -2 40 -3 45 -1 6 -5 35 -10 65 -5 30 -9 57 -10 60 -8
29 -19 87 -17 93 1 4 -3 7 -10 7 -6 0 -9 3 -6 6 4 3 0 21 -8 40 -8 19 -11 34
-8 34 4 0 1 6 -5 13 -6 8 -8 17 -4 20 3 4 1 7 -5 7 -7 0 -12 8 -12 18 0 9 -7
26 -15 36 -8 10 -12 22 -10 27 3 4 1 10 -5 14 -21 13 -9 35 32 59 37 22 44 23
62 10 11 -8 28 -14 37 -14z m-2830 -754 c3 -36 9 -95 14 -121 3 -16 8 -48 11
-70 8 -55 66 -228 97 -293 l26 -53 -40 -26 c-36 -23 -42 -25 -67 -13 -15 8
-32 13 -39 11 -26 -4 -93 178 -129 349 -27 132 -29 166 -10 177 7 4 18 18 25
31 10 19 19 22 61 21 28 -1 50 -7 51 -13z m2939 0 c0 -8 11 -23 25 -34 13 -11
23 -21 21 -23 -2 -2 -7 -33 -10 -69 -14 -135 -113 -446 -140 -437 -6 2 -23 -2
-38 -9 -24 -13 -32 -12 -68 7 -41 22 -49 36 -28 57 7 7 9 12 5 12 -4 0 2 18
13 40 11 21 20 46 20 55 0 8 4 15 10 15 5 0 7 6 4 14 -3 8 0 17 5 21 6 3 9 11
6 16 -4 5 -1 9 5 9 6 0 8 4 5 10 -3 5 -1 18 4 28 10 19 18 51 26 106 2 15 7
36 10 45 3 9 7 42 10 74 2 32 7 61 9 66 3 4 28 8 55 10 39 1 51 -1 51 -13z
m-2667 -738 c9 -10 17 -22 17 -27 0 -15 226 -242 233 -234 4 3 7 2 7 -4 0 -5
25 -27 55 -47 l55 -38 -25 -42 c-17 -28 -32 -41 -47 -42 -13 -1 -31 -5 -41 -9
-12 -5 -31 2 -59 21 -55 38 -245 225 -297 292 -35 45 -39 56 -31 78 6 14 7 30
4 36 -8 13 25 42 61 55 24 9 32 8 40 -5 6 -8 18 -24 28 -34z m2380 27 c33 -17
37 -23 37 -57 0 -21 4 -38 10 -38 11 0 -68 -108 -95 -130 -14 -12 -23 -6 -70
40 l-53 52 61 79 c34 44 64 78 67 76 3 -1 22 -11 43 -22z m-237 -311 l55 -56
-23 -16 c-13 -9 -27 -21 -33 -28 -25 -28 -85 -65 -96 -58 -7 4 -26 7 -44 6
-28 -1 -34 4 -52 42 l-22 44 25 21 c13 11 27 21 30 21 3 0 26 18 51 40 25 22
48 40 50 40 2 0 28 -25 59 -56z m-1576 -175 c24 -12 49 -22 54 -24 6 -1 25 -8
41 -15 40 -17 124 -41 155 -45 14 -2 26 -4 28 -4 1 -1 5 -2 10 -3 4 -1 23 -5
42 -10 19 -4 62 -11 94 -13 33 -3 62 -7 64 -10 3 -2 6 -25 7 -50 3 -40 0 -48
-21 -57 -13 -6 -26 -20 -30 -30 -3 -12 -12 -17 -22 -14 -9 3 -37 8 -62 11 -55
7 -60 8 -132 24 -32 7 -59 12 -60 11 -2 0 -34 11 -73 25 -38 15 -74 28 -80 29
-59 17 -95 38 -95 57 0 10 -7 25 -16 34 -15 15 -14 19 7 60 13 25 29 45 35 45
5 0 30 -10 54 -21z m1225 7 c8 -7 12 -16 9 -18 -2 -3 2 -11 11 -18 19 -15 19
-39 0 -63 -7 -11 -12 -24 -9 -31 11 -29 -284 -123 -441 -141 -33 -4 -62 -9
-64 -11 -2 -2 -12 8 -23 21 -11 14 -26 25 -34 25 -10 0 -14 13 -14 49 0 28 3
52 8 54 4 3 34 8 67 12 145 16 333 67 425 116 43 22 48 23 65 5z"/>
</g>
</svg>
